<svg xmlns="http://www.w3.org/2000/svg" xmlns:xlink="http://www.w3.org/1999/xlink" width="480" zoomAndPan="magnify" viewBox="0 0 360 359.999987" height="480" preserveAspectRatio="xMidYMid meet" version="1.0"><rect x="-36" width="432" fill="#ffffff" y="-35.999999" height="431.999984" fill-opacity="1"/><rect x="-36" width="432" fill="#ffffff" y="-35.999999" height="431.999984" fill-opacity="1"/><rect x="-36" width="432" fill="#000000" y="-35.999999" height="431.999984" fill-opacity="1"/><path fill="#ffffff" d="M 286.703125 245.375 L 245.597656 286.480469 L 180.253906 221.140625 L 114.910156 286.480469 L 73.804688 245.375 L 139.148438 180.03125 L 73.804688 114.6875 L 114.910156 73.578125 L 180.253906 138.925781 L 245.597656 73.578125 L 286.703125 114.6875 L 221.363281 180.03125 Z M 180.03125 0.0117188 C 80.609375 0.0117188 0.0117188 80.609375 0.0117188 180.03125 C 0.0117188 279.453125 80.609375 360.050781 180.03125 360.050781 C 279.453125 360.050781 360.050781 279.453125 360.050781 180.03125 C 360.050781 80.609375 279.453125 0.0117188 180.03125 0.0117188 " fill-opacity="1" fill-rule="nonzero"/></svg>