<svg xmlns="http://www.w3.org/2000/svg" xmlns:xlink="http://www.w3.org/1999/xlink" width="480" zoomAndPan="magnify" viewBox="0 0 360 359.999987" height="480" preserveAspectRatio="xMidYMid meet" version="1.0"><path fill="#ffffff" d="M 180.828125 0.125 C 80.941406 0.125 0 81.027344 0 180.859375 C 0 270.523438 65.441406 345.007812 151.082031 359.089844 L 151.082031 236.566406 L 105.050781 236.566406 L 105.050781 182.894531 L 151.082031 182.894531 L 151.082031 143.929688 C 151.082031 101.683594 185.367188 73.046875 227.640625 73.046875 C 246.425781 73.046875 258.167969 75.863281 258.167969 75.863281 L 258.167969 120.929688 L 227.640625 120.929688 C 214.957031 120.929688 204.625 131.257812 204.625 143.929688 L 204.625 182.894531 L 253.941406 182.894531 L 247.054688 236.566406 L 204.625 236.566406 L 204.625 359.875 C 293.082031 348.136719 361.34375 272.402344 361.34375 180.859375 C 361.5 81.027344 280.558594 0.125 180.828125 0.125 Z M 180.828125 0.125 " fill-opacity="1" fill-rule="nonzero"/></svg>