<svg id="Layer_1" enable-background="new 0 0 512 512" fill="none"  height="512" viewBox="0 0 512 512" width="512" xmlns="http://www.w3.org/2000/svg"><g><path d="m497 0h-181c-24.507 0-46.306 11.814-60 30.047-13.694-18.232-35.493-30.047-60-30.047h-181c-8.284 0-15 6.716-15 15v482c0 8.284 6.716 15 15 15h482c8.284 0 15-6.716 15-15v-482c0-8.284-6.715-15-15-15zm-181 30h166v384.5h-166c-16.87 0-32.457 5.599-45 15.036v-354.536c0-24.813 20.187-45 45-45zm-120 0c24.813 0 45 20.187 45 45v354.536c-12.544-9.437-28.13-15.036-45-15.036h-166v-384.5zm-166 414.5h166c22.257 0 40.781 16.246 44.364 37.5h-210.364zm241.637 37.5c3.582-21.254 22.106-37.5 44.363-37.5h166v37.5z"/><path d="m78.967 96.644h110.421c19.881-.738 19.866-29.269 0-30h-110.421c-19.88.738-19.865 29.269 0 30z"/><path d="m78.967 325.022h110.421c19.881-.738 19.866-29.269 0-30h-110.421c-19.88.738-19.865 29.269 0 30z"/><path d="m78.967 382.115h110.421c19.881-.738 19.866-29.269 0-30h-110.421c-19.88.738-19.865 29.27 0 30z"/><path d="m78.967 267.927h110.421c19.881-.738 19.866-29.269 0-30h-110.421c-19.88.738-19.865 29.269 0 30z"/><path d="m78.967 210.832h110.421c19.881-.738 19.866-29.269 0-30h-110.421c-19.88.738-19.865 29.269 0 30z"/><path d="m78.967 153.739h110.421c19.881-.738 19.866-29.269 0-30h-110.421c-19.88.737-19.865 29.269 0 30z"/><path d="m323.349 96.644h110.421c19.881-.738 19.866-29.269 0-30h-110.421c-19.881.738-19.866 29.269 0 30z"/><path d="m323.349 325.022h110.421c19.881-.738 19.866-29.269 0-30h-110.421c-19.881.738-19.866 29.269 0 30z"/><path d="m323.349 382.115h110.421c19.881-.738 19.866-29.269 0-30h-110.421c-19.881.738-19.866 29.27 0 30z"/><path d="m323.349 267.927h110.421c19.881-.738 19.866-29.269 0-30h-110.421c-19.881.738-19.866 29.269 0 30z"/><path d="m323.349 210.832h110.421c19.881-.738 19.866-29.269 0-30h-110.421c-19.881.738-19.866 29.269 0 30z"/><path d="m323.349 153.739h110.421c19.881-.738 19.866-29.269 0-30h-110.421c-19.881.737-19.866 29.269 0 30z"/></g></svg>