<svg xmlns="http://www.w3.org/2000/svg" xmlns:xlink="http://www.w3.org/1999/xlink" width="480" zoomAndPan="magnify" viewBox="0 0 360 359.999987" height="480" preserveAspectRatio="xMidYMid meet" version="1.0"><defs><clipPath id="e1d9ec1a46"><path d="M 23.238281 228 L 336.738281 228 L 336.738281 359 L 23.238281 359 Z M 23.238281 228 " clip-rule="nonzero"/></clipPath></defs><path fill="#ffffff" d="M 180.558594 1.992188 C 171.050781 1.992188 163.335938 9.703125 163.335938 19.21875 L 163.335938 204.011719 L 122.976562 163.648438 C 106.75 147.917969 82.847656 171.71875 98.617188 188.007812 C 98.617188 188.007812 168.382812 257.777344 168.382812 257.777344 C 174.894531 264.535156 186.21875 264.316406 192.738281 257.777344 C 192.738281 257.777344 262.503906 188.007812 262.503906 188.007812 C 278.222656 171.746094 254.449219 147.894531 238.144531 163.648438 C 238.144531 163.648438 197.785156 204.011719 197.785156 204.011719 L 197.785156 19.21875 C 197.785156 9.703125 190.070312 1.992188 180.558594 1.992188 Z M 180.558594 1.992188 " fill-opacity="1" fill-rule="nonzero"/><g clip-path="url(#e1d9ec1a46)"><path fill="#ffffff" d="M 41.03125 228.371094 C 31.523438 228.371094 23.804688 236.082031 23.804688 245.597656 L 23.804688 271.011719 C 23.804688 318.980469 62.832031 358.007812 110.796875 358.007812 L 250.324219 358.007812 C 298.289062 358.007812 337.316406 318.980469 337.316406 271.011719 L 337.316406 245.597656 C 337.316406 236.082031 329.597656 228.371094 320.089844 228.371094 C 310.582031 228.371094 302.863281 236.082031 302.863281 245.597656 L 302.863281 271.011719 C 302.863281 299.984375 279.292969 323.554688 250.324219 323.554688 L 110.796875 323.554688 C 81.828125 323.554688 58.257812 299.984375 58.257812 271.011719 L 58.257812 245.597656 C 58.257812 236.082031 50.542969 228.371094 41.03125 228.371094 Z M 41.03125 228.371094 " fill-opacity="1" fill-rule="nonzero"/></g></svg>