<svg width="20" height="20" xmlns="http://www.w3.org/2000/svg" viewBox="0 0 20 20">
    <path d="M12.17,9.03h-1.4c-1.36,0-2.46,1.1-2.46,2.46,0,.67,.31,1.04,.58,1.22,.21,.14,.39,.36,.39,.61,0,.3-.24,.54-.54,.54h-.08c-.07,0-.14-.01-.21-.04-.54-.24-3.04-1.49-3.04-4.31,0-2.4,1.95-4.35,4.35-4.35h2.41v-1.85c0-.58,.47-1.05,1.05-1.05,.26,0,.51,.1,.7,.27l4.17,3.75c.23,.21,.36,.5,.36,.81s-.13,.6-.36,.81l-4.2,3.78c-.18,.16-.41,.25-.65,.25h-.11c-.53,0-.97-.43-.97-.97v-1.93ZM3.96,5.17c-.27,0-.48,.22-.48,.48V15.31c0,.27,.22,.48,.48,.48H13.62c.27,0,.48-.22,.48-.48v-1.45c0-.53,.43-.97,.97-.97s.97,.43,.97,.97v1.45c0,1.33-1.08,2.41-2.41,2.41H3.96c-1.33,0-2.41-1.08-2.41-2.41V5.65c0-1.33,1.08-2.41,2.41-2.41h1.45c.53,0,.97,.43,.97,.97s-.43,.97-.97,.97h-1.45Z"/>
</svg>
