<svg id="Layer_1" data-name="Layer 1" xmlns="http://www.w3.org/2000/svg" viewBox="0 0 20 20">
    <path d="M11.19,9.47h-.77c-.74,0-1.34,.6-1.34,1.34,0,.37,.17,.56,.32,.67,.11,.08,.21,.2,.21,.33,0,.16-.13,.29-.29,.29h-.04s-.08,0-.12-.02c-.29-.13-1.66-.81-1.66-2.35,0-1.31,1.06-2.37,2.37-2.37h1.32v-1.01c0-.32,.26-.57,.57-.57,.14,0,.28,.05,.38,.15l2.27,2.05c.13,.11,.2,.27,.2,.44s-.07,.33-.2,.44l-2.29,2.06c-.1,.09-.22,.13-.35,.13h-.06c-.29,0-.53-.24-.53-.53v-1.05Zm-4.48-2.11c-.14,0-.26,.12-.26,.26v5.27c0,.14,.12,.26,.26,.26h5.27c.14,0,.26-.12,.26-.26v-.79c0-.29,.24-.53,.53-.53s.53,.24,.53,.53v.79c0,.73-.59,1.32-1.32,1.32H6.71c-.73,0-1.32-.59-1.32-1.32V7.63c0-.73,.59-1.32,1.32-1.32h.79c.29,0,.53,.24,.53,.53s-.24,.53-.53,.53h-.79Z"/>
</svg>
