<svg xmlns="http://www.w3.org/2000/svg" viewBox="0 0 20 20">
    <path d="M14.93,9.71v.02s-.01,.08,0,.11v.03c-.01,.08-.01,.16,0,.24v.05s-.01,.06,0,.1v.03c-.02,.14-.02,.28-.03,.43-.02,.23-.07,.46-.14,.68-.18,.63-.48,1.19-.89,1.7-.03,.04-.06,.07-.09,.1-.02,.03-.05,.05-.09,.03-.04-.02-.04-.05-.03-.09,.02-.13,.05-.27,.07-.41,.12-1-.08-1.91-.7-2.72-.28-.36-.63-.64-1.03-.86-.45-.25-.94-.37-1.44-.48-.51-.11-1.02-.2-1.51-.37-.31-.11-.6-.24-.86-.44-.29-.21-.49-.49-.63-.81-.01-.03-.01-.08-.05-.08-.04,0-.05,.04-.07,.07-.2,.32-.34,.65-.37,1.03-.02,.3,.06,.58,.25,.81,.23,.29,.54,.45,.87,.57,.32,.12,.66,.19,1,.23,.03,0,.06,0,.09,.02,.02,0,.05,.02,.04,.05,0,.03-.02,.04-.05,.05-.05,0-.1,.02-.15,.02-.5,.01-.98-.1-1.43-.31-.18-.08-.35-.17-.51-.28-.03-.02-.05-.05-.09-.03-.03,.02-.03,.06-.03,.1,.01,.17,.03,.34,.09,.5,.14,.4,.42,.68,.79,.88,.36,.19,.75,.29,1.15,.34,.24,.03,.48,.05,.71,.05,.04,0,.08,0,.1,.03,0,.02,0,.04,0,.05-.01,.02-.03,.03-.06,.04-.14,.02-.28,.05-.42,.05-.33,.02-.66,0-.98-.08-.22-.05-.43-.12-.64-.22-.03-.01-.06-.04-.08-.02-.03,.02,0,.06,0,.09,.13,.42,.39,.74,.78,.95,.34,.18,.71,.26,1.1,.29,.39,.03,.77-.04,1.16-.02,.39,.02,.77,.07,1.13,.24,.43,.2,.72,.53,.85,.99,.05,.16,.07,.32,.09,.49,0,.08-.02,.14-.1,.19-.43,.28-.89,.49-1.38,.63-.38,.11-.77,.16-1.16,.15-.28,0-.57,0-.85-.02-.46-.05-.89-.18-1.32-.37-.43-.19-.83-.43-1.19-.74-.49-.41-.89-.89-1.19-1.46-.27-.5-.44-1.03-.53-1.59-.03-.17-.03-.34-.03-.51,0-.31-.01-.61,.02-.92,.05-.47,.19-.91,.38-1.34,.18-.41,.42-.79,.71-1.14,.39-.47,.85-.85,1.37-1.15,.49-.28,1-.46,1.55-.56,.13-.02,.27-.03,.4-.03,.1,0,.2-.02,.3,0,.03,0,.06,0,.1,0,.06,0,.11,0,.17,0,.03,0,.06,0,.09,0,.82-.02,1.57,.22,2.28,.61,.42,.23,.79,.53,1.12,.87,.42,.43,.75,.93,.98,1.48,.15,.36,.27,.74,.33,1.13,.02,.16,.02,.32,.03,.47,0,.02,0,.04,0,.06Zm0,.16c-.03,.08-.03,.16,0,.24v-.24Zm0-.15s-.02,.08,0,.11v-.11Zm-5.11-4.65h.1c.06,0,.12,0,.18,0,.03,0,.06,0,.1,0m4.74,5.08s-.03,.06,0,.1v-.1Zm-5.05,.98s.04,0,.04-.01c0-.02-.01-.02-.02-.02,0,.01-.01,.02-.02,.03Z" style="fill: #00b6cd;"/>
</svg>
